<svg width="60" height="60" viewBox="0 0 60 60" fill="none" xmlns="http://www.w3.org/2000/svg">
<path d="M0 7.8C0 3.49218 3.49218 0 7.8 0H52.2C56.5078 0 60 3.49218 60 7.8V52.2C60 56.5078 56.5078 60 52.2 60H7.8C3.49218 60 0 56.5078 0 52.2V7.8Z" fill="#19EAB2"/>
<path d="M7.2 29.7C7.2 17.2736 17.2736 7.2 29.7 7.2C42.1264 7.2 52.2 17.2736 52.2 29.7C52.2 42.1264 42.1264 52.2 29.7 52.2C17.2736 52.2 7.2 42.1264 7.2 29.7Z" fill="#1E1E1E"/>
<path d="M31.5588 42.9C30.866 44.1 29.134 44.1 28.4412 42.9L16.49 22.2C15.7972 21 16.6632 19.5 18.0488 19.5H41.9512C43.3368 19.5 44.2028 21 43.51 22.2L31.5588 42.9Z" fill="#19EAB2"/>
</svg>
